<svg xmlns="http://www.w3.org/2000/svg" name="IconMore" viewBox="0 0 1920 1920" rotate="0" aria-hidden="true" role="presentation" focusable="false" class="InlineSVG__hFyJfI-root InlineSVG__hFyJfI-block SVGIcon__jWEGnx-root" data-cid="InlineSVG SVGIcon"><g role="presentation"><path d="M1129.412 1637.647c0 93.448-75.964 169.412-169.412 169.412-93.448 0-169.412-75.964-169.412-169.412 0-93.447 75.964-169.412 169.412-169.412 93.448 0 169.412 75.965 169.412 169.412zm0-677.647c0 93.448-75.964 169.412-169.412 169.412-93.448 0-169.412-75.964-169.412-169.412 0-93.448 75.964-169.412 169.412-169.412 93.448 0 169.412 75.964 169.412 169.412zm0-677.647c0 93.447-75.964 169.412-169.412 169.412-93.448 0-169.412-75.965-169.412-169.412 0-93.448 75.964-169.412 169.412-169.412 93.448 0 169.412 75.964 169.412 169.412z" fill-rule="evenodd" stroke="none" stroke-width="1"></path></g></svg>